{
	"asset":{
		"generator":"Khronos glTF Blender I/O v3.6.27",
		"version":"2.0"
	},
	"extensionsUsed":[
		"KHR_materials_specular",
		"KHR_materials_ior"
	],
	"scene":0,
	"scenes":[
		{
			"name":"Scene",
			"nodes":[
				8
			]
		}
	],
	"nodes":[
		{
			"mesh":0,
			"name":"Chair back",
			"rotation":[
				0,
				0,
				-2.0319435861892998e-05,
				1
			],
			"translation":[
				-0.19362947344779968,
				0.32275232672691345,
				-0.15456372499465942
			]
		},
		{
			"mesh":1,
			"name":"screw back b",
			"rotation":[
				0.5835267305374146,
				0.10112608969211578,
				-0.2034185230731964,
				0.7796736359596252
			],
			"scale":[
				0.006434631999582052,
				0.006755576469004154,
				0.006508031394332647
			],
			"translation":[
				-0.34868407249450684,
				0.2492382824420929,
				-0.11161669343709946
			]
		},
		{
			"mesh":2,
			"name":"screw back t",
			"rotation":[
				0.5835267305374146,
				0.10112608969211578,
				-0.2034185230731964,
				0.7796736359596252
			],
			"scale":[
				0.006434631999582052,
				0.006755576469004154,
				0.006508031394332647
			],
			"translation":[
				-0.32599902153015137,
				0.3971887528896332,
				-0.16513727605342865
			]
		},
		{
			"mesh":3,
			"name":"screw seat b",
			"rotation":[
				-0.04050417244434357,
				9.220234642270952e-05,
				-0.08772652596235275,
				0.9953209161758423
			],
			"scale":[
				0.006345543544739485,
				0.006463616620749235,
				0.006881319917738438
			],
			"translation":[
				-0.367753803730011,
				0.1197536289691925,
				-0.004460230469703674
			]
		},
		{
			"mesh":4,
			"name":"screw seat f",
			"rotation":[
				-0.008597991429269314,
				-0.0006343470304273069,
				-0.09598541259765625,
				0.995345413684845
			],
			"scale":[
				0.006347115617245436,
				0.006459390744566917,
				0.006883832160383463
			],
			"translation":[
				-0.3645820617675781,
				0.13105255365371704,
				0.22503668069839478
			]
		},
		{
			"mesh":5,
			"name":"seat",
			"rotation":[
				0,
				0,
				-2.0319435861892998e-05,
				1
			],
			"translation":[
				-0.19367970526218414,
				0.11262288689613342,
				0.09349742531776428
			]
		},
		{
			"mesh":6,
			"name":"wood back",
			"rotation":[
				0.036306265741586685,
				6.255906191654503e-05,
				-2.306027090526186e-05,
				0.9993407130241394
			],
			"translation":[
				-0.19345799088478088,
				-0.02732941508293152,
				-0.15701504051685333
			]
		},
		{
			"mesh":7,
			"name":"wood front",
			"rotation":[
				-0.03815512731671333,
				-6.573217979166657e-05,
				-2.3345259251073003e-05,
				0.9992718696594238
			],
			"translation":[
				-0.19348934292793274,
				-0.018781393766403198,
				0.23402860760688782
			]
		},
		{
			"children":[
				0,
				1,
				2,
				3,
				4,
				5,
				6,
				7
			],
			"mesh":8,
			"name":"Chair leg",
			"rotation":[
				0,
				-0.17348799109458923,
				0,
				0.9848359823226929
			],
			"translation":[
				-0.05238448455929756,
				0.3430176079273224,
				0.00922884326428175
			]
		}
	],
	"materials":[
		{
			"doubleSided":true,
			"name":"Chair_dark_Wood",
			"normalTexture":{
				"index":0,
				"scale":1.7000000476837158
			},
			"pbrMetallicRoughness":{
				"baseColorFactor":[
					0,
					0,
					0,
					1
				],
				"metallicFactor":0,
				"metallicRoughnessTexture":{
					"index":1
				}
			}
		},
		{
			"doubleSided":true,
			"name":"Screw_Metallic",
			"pbrMetallicRoughness":{
				"baseColorFactor":[
					0.05059776455163956,
					0.05059776455163956,
					0.05059776455163956,
					1
				],
				"roughnessFactor":0.09999999403953552
			}
		},
		{
			"doubleSided":true,
			"extensions":{
				"KHR_materials_specular":{
					"specularColorFactor":[
						0,
						0,
						0
					]
				},
				"KHR_materials_ior":{
					"ior":1.4500000476837158
				}
			},
			"name":"Screw_inner_black",
			"pbrMetallicRoughness":{
				"baseColorFactor":[
					0,
					0,
					0,
					1
				],
				"metallicFactor":0,
				"roughnessFactor":0.5
			}
		}
	],
	"meshes":[
		{
			"name":"Plane.003",
			"primitives":[
				{
					"attributes":{
						"POSITION":0,
						"NORMAL":1,
						"TEXCOORD_0":2
					},
					"indices":3,
					"material":0
				}
			]
		},
		{
			"name":"Circle.001",
			"primitives":[
				{
					"attributes":{
						"POSITION":4,
						"NORMAL":5,
						"TEXCOORD_0":6
					},
					"indices":7,
					"material":1
				},
				{
					"attributes":{
						"POSITION":8,
						"NORMAL":9,
						"TEXCOORD_0":10
					},
					"indices":11,
					"material":2
				}
			]
		},
		{
			"name":"Circle.001",
			"primitives":[
				{
					"attributes":{
						"POSITION":12,
						"NORMAL":13,
						"TEXCOORD_0":14
					},
					"indices":7,
					"material":1
				},
				{
					"attributes":{
						"POSITION":15,
						"NORMAL":16,
						"TEXCOORD_0":17
					},
					"indices":11,
					"material":2
				}
			]
		},
		{
			"name":"Circle.001",
			"primitives":[
				{
					"attributes":{
						"POSITION":18,
						"NORMAL":19,
						"TEXCOORD_0":20
					},
					"indices":7,
					"material":1
				},
				{
					"attributes":{
						"POSITION":21,
						"NORMAL":22,
						"TEXCOORD_0":23
					},
					"indices":24,
					"material":2
				}
			]
		},
		{
			"name":"Circle.001",
			"primitives":[
				{
					"attributes":{
						"POSITION":25,
						"NORMAL":26,
						"TEXCOORD_0":27
					},
					"indices":7,
					"material":1
				},
				{
					"attributes":{
						"POSITION":28,
						"NORMAL":29,
						"TEXCOORD_0":30
					},
					"indices":24,
					"material":2
				}
			]
		},
		{
			"name":"Plane.001",
			"primitives":[
				{
					"attributes":{
						"POSITION":31,
						"NORMAL":32,
						"TEXCOORD_0":33
					},
					"indices":34,
					"material":0
				}
			]
		},
		{
			"name":"Cube.002",
			"primitives":[
				{
					"attributes":{
						"POSITION":35,
						"NORMAL":36,
						"TEXCOORD_0":37
					},
					"indices":38,
					"material":0
				}
			]
		},
		{
			"name":"Cube.001",
			"primitives":[
				{
					"attributes":{
						"POSITION":39,
						"NORMAL":40,
						"TEXCOORD_0":41
					},
					"indices":42,
					"material":0
				}
			]
		},
		{
			"name":"Cube",
			"primitives":[
				{
					"attributes":{
						"POSITION":43,
						"NORMAL":44,
						"TEXCOORD_0":45
					},
					"indices":46,
					"material":0
				}
			]
		}
	],
	"textures":[
		{
			"sampler":0,
			"source":0
		},
		{
			"sampler":0,
			"source":1
		}
	],
	"images":[
		{
			"mimeType":"image/png",
			"name":"WoodQuarteredChiffon001_NRM16_4K",
			"uri":"textures/WoodQuarteredChiffon001_NRM16_4K.png"
		},
		{
			"mimeType":"image/png",
			"name":"WoodQuarteredChiffon001_GLOSS_4K",
			"uri":"textures/WoodQuarteredChiffon001_GLOSS_4K.png"
		}
	],
	"accessors":[
		{
			"bufferView":0,
			"componentType":5126,
			"count":4635,
			"max":[
				0.23621419072151184,
				0.14597226679325104,
				0.08689076453447342
			],
			"min":[
				-0.23621641099452972,
				-0.15075795352458954,
				-0.0748182013630867
			],
			"type":"VEC3"
		},
		{
			"bufferView":1,
			"componentType":5126,
			"count":4635,
			"type":"VEC3"
		},
		{
			"bufferView":2,
			"componentType":5126,
			"count":4635,
			"type":"VEC2"
		},
		{
			"bufferView":3,
			"componentType":5123,
			"count":18048,
			"type":"SCALAR"
		},
		{
			"bufferView":4,
			"componentType":5126,
			"count":84,
			"max":[
				43.83076477050781,
				20.717065811157227,
				1
			],
			"min":[
				-1,
				-0.015726596117019653,
				-4.79098653793335
			],
			"type":"VEC3"
		},
		{
			"bufferView":5,
			"componentType":5126,
			"count":84,
			"type":"VEC3"
		},
		{
			"bufferView":6,
			"componentType":5126,
			"count":84,
			"type":"VEC2"
		},
		{
			"bufferView":7,
			"componentType":5123,
			"count":240,
			"type":"SCALAR"
		},
		{
			"bufferView":8,
			"componentType":5126,
			"count":52,
			"max":[
				43.44529724121094,
				20.227697372436523,
				0.37522152066230774
			],
			"min":[
				-0.3249502182006836,
				-0.015726596117019653,
				-4.166835784912109
			],
			"type":"VEC3"
		},
		{
			"bufferView":9,
			"componentType":5126,
			"count":52,
			"type":"VEC3"
		},
		{
			"bufferView":10,
			"componentType":5126,
			"count":52,
			"type":"VEC2"
		},
		{
			"bufferView":11,
			"componentType":5123,
			"count":84,
			"type":"SCALAR"
		},
		{
			"bufferView":12,
			"componentType":5126,
			"count":84,
			"max":[
				37.509185791015625,
				17.794986724853516,
				1
			],
			"min":[
				-1,
				-0.015726596117019653,
				-4.235717296600342
			],
			"type":"VEC3"
		},
		{
			"bufferView":13,
			"componentType":5126,
			"count":84,
			"type":"VEC3"
		},
		{
			"bufferView":14,
			"componentType":5126,
			"count":84,
			"type":"VEC2"
		},
		{
			"bufferView":15,
			"componentType":5126,
			"count":52,
			"max":[
				37.12371826171875,
				17.305618286132812,
				0.37522152066230774
			],
			"min":[
				-0.3249502182006836,
				-0.015726596117019653,
				-3.6115665435791016
			],
			"type":"VEC3"
		},
		{
			"bufferView":16,
			"componentType":5126,
			"count":52,
			"type":"VEC3"
		},
		{
			"bufferView":17,
			"componentType":5126,
			"count":52,
			"type":"VEC2"
		},
		{
			"bufferView":18,
			"componentType":5126,
			"count":84,
			"max":[
				54.95915603637695,
				9.74319839477539,
				1.3685561418533325
			],
			"min":[
				-1,
				-0.015726596117019653,
				-1
			],
			"type":"VEC3"
		},
		{
			"bufferView":19,
			"componentType":5126,
			"count":84,
			"type":"VEC3"
		},
		{
			"bufferView":20,
			"componentType":5126,
			"count":84,
			"type":"VEC2"
		},
		{
			"bufferView":21,
			"componentType":5126,
			"count":52,
			"max":[
				54.33452224731445,
				9.515865325927734,
				0.7438868284225464
			],
			"min":[
				-0.3249502182006836,
				-0.015726596117019653,
				-0.37522128224372864
			],
			"type":"VEC3"
		},
		{
			"bufferView":22,
			"componentType":5126,
			"count":52,
			"type":"VEC3"
		},
		{
			"bufferView":23,
			"componentType":5126,
			"count":52,
			"type":"VEC2"
		},
		{
			"bufferView":24,
			"componentType":5123,
			"count":84,
			"type":"SCALAR"
		},
		{
			"bufferView":25,
			"componentType":5126,
			"count":84,
			"max":[
				53.786441802978516,
				10.480108261108398,
				1.0192217826843262
			],
			"min":[
				-1,
				-0.015726596117019653,
				-1
			],
			"type":"VEC3"
		},
		{
			"bufferView":26,
			"componentType":5126,
			"count":84,
			"type":"VEC3"
		},
		{
			"bufferView":27,
			"componentType":5126,
			"count":84,
			"type":"VEC2"
		},
		{
			"bufferView":28,
			"componentType":5126,
			"count":52,
			"max":[
				53.167659759521484,
				10.231355667114258,
				0.39444586634635925
			],
			"min":[
				-0.3249502182006836,
				-0.015726596117019653,
				-0.37522128224372864
			],
			"type":"VEC3"
		},
		{
			"bufferView":29,
			"componentType":5126,
			"count":52,
			"type":"VEC3"
		},
		{
			"bufferView":30,
			"componentType":5126,
			"count":52,
			"type":"VEC2"
		},
		{
			"bufferView":31,
			"componentType":5126,
			"count":7472,
			"max":[
				0.26525887846946716,
				0.03563797473907471,
				0.21079014241695404
			],
			"min":[
				-0.2652592658996582,
				-0.033428855240345,
				-0.2222192883491516
			],
			"type":"VEC3"
		},
		{
			"bufferView":32,
			"componentType":5126,
			"count":7472,
			"type":"VEC3"
		},
		{
			"bufferView":33,
			"componentType":5126,
			"count":7472,
			"type":"VEC2"
		},
		{
			"bufferView":34,
			"componentType":5123,
			"count":27648,
			"type":"SCALAR"
		},
		{
			"bufferView":35,
			"componentType":5126,
			"count":1662,
			"max":[
				0.1924246847629547,
				0.0333125963807106,
				0.013150297105312347
			],
			"min":[
				-0.1924246847629547,
				-0.034845564514398575,
				-0.013556910678744316
			],
			"type":"VEC3"
		},
		{
			"bufferView":36,
			"componentType":5126,
			"count":1662,
			"type":"VEC3"
		},
		{
			"bufferView":37,
			"componentType":5126,
			"count":1662,
			"type":"VEC2"
		},
		{
			"bufferView":38,
			"componentType":5123,
			"count":8448,
			"type":"SCALAR"
		},
		{
			"bufferView":39,
			"componentType":5126,
			"count":1627,
			"max":[
				0.1924246847629547,
				0.03331378847360611,
				0.01314987801015377
			],
			"min":[
				-0.1924246847629547,
				-0.034846819937229156,
				-0.013556483201682568
			],
			"type":"VEC3"
		},
		{
			"bufferView":40,
			"componentType":5126,
			"count":1627,
			"type":"VEC3"
		},
		{
			"bufferView":41,
			"componentType":5126,
			"count":1627,
			"type":"VEC2"
		},
		{
			"bufferView":42,
			"componentType":5123,
			"count":8448,
			"type":"SCALAR"
		},
		{
			"bufferView":43,
			"componentType":5126,
			"count":49616,
			"max":[
				0.06549747288227081,
				0.4006302058696747,
				0.2789011299610138
			],
			"min":[
				-0.4528939723968506,
				-0.34357792139053345,
				-0.20609883964061737
			],
			"type":"VEC3"
		},
		{
			"bufferView":44,
			"componentType":5126,
			"count":49616,
			"type":"VEC3"
		},
		{
			"bufferView":45,
			"componentType":5126,
			"count":49616,
			"type":"VEC2"
		},
		{
			"bufferView":46,
			"componentType":5123,
			"count":267264,
			"type":"SCALAR"
		}
	],
	"bufferViews":[
		{
			"buffer":0,
			"byteLength":55620,
			"byteOffset":0,
			"target":34962
		},
		{
			"buffer":0,
			"byteLength":55620,
			"byteOffset":55620,
			"target":34962
		},
		{
			"buffer":0,
			"byteLength":37080,
			"byteOffset":111240,
			"target":34962
		},
		{
			"buffer":0,
			"byteLength":36096,
			"byteOffset":148320,
			"target":34963
		},
		{
			"buffer":0,
			"byteLength":1008,
			"byteOffset":184416,
			"target":34962
		},
		{
			"buffer":0,
			"byteLength":1008,
			"byteOffset":185424,
			"target":34962
		},
		{
			"buffer":0,
			"byteLength":672,
			"byteOffset":186432,
			"target":34962
		},
		{
			"buffer":0,
			"byteLength":480,
			"byteOffset":187104,
			"target":34963
		},
		{
			"buffer":0,
			"byteLength":624,
			"byteOffset":187584,
			"target":34962
		},
		{
			"buffer":0,
			"byteLength":624,
			"byteOffset":188208,
			"target":34962
		},
		{
			"buffer":0,
			"byteLength":416,
			"byteOffset":188832,
			"target":34962
		},
		{
			"buffer":0,
			"byteLength":168,
			"byteOffset":189248,
			"target":34963
		},
		{
			"buffer":0,
			"byteLength":1008,
			"byteOffset":189416,
			"target":34962
		},
		{
			"buffer":0,
			"byteLength":1008,
			"byteOffset":190424,
			"target":34962
		},
		{
			"buffer":0,
			"byteLength":672,
			"byteOffset":191432,
			"target":34962
		},
		{
			"buffer":0,
			"byteLength":624,
			"byteOffset":192104,
			"target":34962
		},
		{
			"buffer":0,
			"byteLength":624,
			"byteOffset":192728,
			"target":34962
		},
		{
			"buffer":0,
			"byteLength":416,
			"byteOffset":193352,
			"target":34962
		},
		{
			"buffer":0,
			"byteLength":1008,
			"byteOffset":193768,
			"target":34962
		},
		{
			"buffer":0,
			"byteLength":1008,
			"byteOffset":194776,
			"target":34962
		},
		{
			"buffer":0,
			"byteLength":672,
			"byteOffset":195784,
			"target":34962
		},
		{
			"buffer":0,
			"byteLength":624,
			"byteOffset":196456,
			"target":34962
		},
		{
			"buffer":0,
			"byteLength":624,
			"byteOffset":197080,
			"target":34962
		},
		{
			"buffer":0,
			"byteLength":416,
			"byteOffset":197704,
			"target":34962
		},
		{
			"buffer":0,
			"byteLength":168,
			"byteOffset":198120,
			"target":34963
		},
		{
			"buffer":0,
			"byteLength":1008,
			"byteOffset":198288,
			"target":34962
		},
		{
			"buffer":0,
			"byteLength":1008,
			"byteOffset":199296,
			"target":34962
		},
		{
			"buffer":0,
			"byteLength":672,
			"byteOffset":200304,
			"target":34962
		},
		{
			"buffer":0,
			"byteLength":624,
			"byteOffset":200976,
			"target":34962
		},
		{
			"buffer":0,
			"byteLength":624,
			"byteOffset":201600,
			"target":34962
		},
		{
			"buffer":0,
			"byteLength":416,
			"byteOffset":202224,
			"target":34962
		},
		{
			"buffer":0,
			"byteLength":89664,
			"byteOffset":202640,
			"target":34962
		},
		{
			"buffer":0,
			"byteLength":89664,
			"byteOffset":292304,
			"target":34962
		},
		{
			"buffer":0,
			"byteLength":59776,
			"byteOffset":381968,
			"target":34962
		},
		{
			"buffer":0,
			"byteLength":55296,
			"byteOffset":441744,
			"target":34963
		},
		{
			"buffer":0,
			"byteLength":19944,
			"byteOffset":497040,
			"target":34962
		},
		{
			"buffer":0,
			"byteLength":19944,
			"byteOffset":516984,
			"target":34962
		},
		{
			"buffer":0,
			"byteLength":13296,
			"byteOffset":536928,
			"target":34962
		},
		{
			"buffer":0,
			"byteLength":16896,
			"byteOffset":550224,
			"target":34963
		},
		{
			"buffer":0,
			"byteLength":19524,
			"byteOffset":567120,
			"target":34962
		},
		{
			"buffer":0,
			"byteLength":19524,
			"byteOffset":586644,
			"target":34962
		},
		{
			"buffer":0,
			"byteLength":13016,
			"byteOffset":606168,
			"target":34962
		},
		{
			"buffer":0,
			"byteLength":16896,
			"byteOffset":619184,
			"target":34963
		},
		{
			"buffer":0,
			"byteLength":595392,
			"byteOffset":636080,
			"target":34962
		},
		{
			"buffer":0,
			"byteLength":595392,
			"byteOffset":1231472,
			"target":34962
		},
		{
			"buffer":0,
			"byteLength":396928,
			"byteOffset":1826864,
			"target":34962
		},
		{
			"buffer":0,
			"byteLength":534528,
			"byteOffset":2223792,
			"target":34963
		}
	],
	"samplers":[
		{
			"magFilter":9729,
			"minFilter":9987
		}
	],
	"buffers":[
		{
			"byteLength":2758320,
			"uri":"chair.bin"
		}
	]
}
