{
	"asset":{
		"generator":"Khronos glTF Blender I/O v3.6.27",
		"version":"2.0"
	},
	"scene":0,
	"scenes":[
		{
			"name":"Scene",
			"nodes":[
				0
			]
		}
	],
	"nodes":[
		{
			"mesh":0,
			"name":"Tree.022",
			"rotation":[
				0,
				0.19260886311531067,
				0,
				0.9812756180763245
			],
			"translation":[
				8.211047172546387,
				0,
				-2.7426962852478027
			]
		}
	],
	"materials":[
		{
			"alphaMode":"BLEND",
			"doubleSided":true,
			"name":"Treebranch",
			"pbrMetallicRoughness":{
				"baseColorTexture":{
					"index":0
				},
				"metallicFactor":0,
				"roughnessFactor":0.5
			}
		},
		{
			"doubleSided":true,
			"name":"Material.002",
			"normalTexture":{
				"index":1
			},
			"pbrMetallicRoughness":{
				"baseColorTexture":{
					"index":2
				},
				"metallicFactor":0,
				"roughnessFactor":0.699999988079071
			}
		}
	],
	"meshes":[
		{
			"name":"Cube.024",
			"primitives":[
				{
					"attributes":{
						"POSITION":0,
						"NORMAL":1,
						"TEXCOORD_0":2
					},
					"indices":3,
					"material":0
				},
				{
					"attributes":{
						"POSITION":4,
						"NORMAL":5,
						"TEXCOORD_0":6
					},
					"indices":7,
					"material":1
				}
			]
		}
	],
	"textures":[
		{
			"sampler":0,
			"source":0
		},
		{
			"sampler":1,
			"source":1
		},
		{
			"sampler":1,
			"source":1
		}
	],
	"images":[
		{
			"mimeType":"image/png",
			"name":"oak branch",
			"uri":"textures/oak%20branch.png"
		},
		{
			"mimeType":"image/jpeg",
			"name":"istockphoto-1259263537-612x612",
			"uri":"textures/istockphoto-1259263537-612x612.jpg"
		}
	],
	"accessors":[
		{
			"bufferView":0,
			"componentType":5126,
			"count":968,
			"max":[
				-7.638078689575195,
				1.9544107913970947,
				0.046847954392433167
			],
			"min":[
				-9.423151016235352,
				0.28873059153556824,
				-1.2940655946731567
			],
			"type":"VEC3"
		},
		{
			"bufferView":1,
			"componentType":5126,
			"count":968,
			"type":"VEC3"
		},
		{
			"bufferView":2,
			"componentType":5126,
			"count":968,
			"type":"VEC2"
		},
		{
			"bufferView":3,
			"componentType":5123,
			"count":1452,
			"type":"SCALAR"
		},
		{
			"bufferView":4,
			"componentType":5126,
			"count":6624,
			"max":[
				-7.886422157287598,
				1.7476954460144043,
				-0.21226589381694794
			],
			"min":[
				-9.153398513793945,
				-0.044410429894924164,
				-1.05353581905365
			],
			"type":"VEC3"
		},
		{
			"bufferView":5,
			"componentType":5126,
			"count":6624,
			"type":"VEC3"
		},
		{
			"bufferView":6,
			"componentType":5126,
			"count":6624,
			"type":"VEC2"
		},
		{
			"bufferView":7,
			"componentType":5123,
			"count":31488,
			"type":"SCALAR"
		}
	],
	"bufferViews":[
		{
			"buffer":0,
			"byteLength":11616,
			"byteOffset":0,
			"target":34962
		},
		{
			"buffer":0,
			"byteLength":11616,
			"byteOffset":11616,
			"target":34962
		},
		{
			"buffer":0,
			"byteLength":7744,
			"byteOffset":23232,
			"target":34962
		},
		{
			"buffer":0,
			"byteLength":2904,
			"byteOffset":30976,
			"target":34963
		},
		{
			"buffer":0,
			"byteLength":79488,
			"byteOffset":33880,
			"target":34962
		},
		{
			"buffer":0,
			"byteLength":79488,
			"byteOffset":113368,
			"target":34962
		},
		{
			"buffer":0,
			"byteLength":52992,
			"byteOffset":192856,
			"target":34962
		},
		{
			"buffer":0,
			"byteLength":62976,
			"byteOffset":245848,
			"target":34963
		}
	],
	"samplers":[
		{
			"magFilter":9729,
			"minFilter":9987,
			"wrapS":33071,
			"wrapT":33071
		},
		{
			"magFilter":9729,
			"minFilter":9987
		}
	],
	"buffers":[
		{
			"byteLength":308824,
			"uri":"tree.bin"
		}
	]
}
